<svg xmlns="http://www.w3.org/2000/svg" width="1280" height="300" viewBox="0 0 1280 300">
<rect width="1280" height="300" fill="#F4F6F9"/>
<polygon points="20,20 1260,20 1260,280 80,280 20,220" fill="none" stroke="#005CAF" stroke-width="3"/>
<rect x="20" y="20" width="1240" height="10" fill="#E3000F"/>
<rect x="1080" y="20" width="180" height="10" fill="#FFD700"/>
<rect x="1080" y="30" width="180" height="10" fill="#2B2B2B"/>
<line x1="60" y1="80" x2="1220" y2="80" stroke="#005CAF" stroke-width="1"/>
<line x1="60" y1="220" x2="1220" y2="220" stroke="#005CAF" stroke-width="1"/>
<text x="40" y="55" font-family="monospace" font-size="12" fill="#2B2B2B">CAUTION</text>
<text x="1120" y="55" font-family="monospace" font-size="12" fill="#2B2B2B">SYSTEM READY</text>
<text x="640" y="145" text-anchor="middle" font-family="monospace" font-size="58" font-weight="bold" fill="#2B2B2B">ADE MAULANA</text>
<text x="640" y="180" text-anchor="middle" font-family="monospace" font-size="20" fill="#005CAF">Artificial Intelligence • Computer Vision • Software Engineering</text>
<rect x="60" y="245" width="160" height="22" fill="#2B2B2B"/>
<rect x="220" y="245" width="160" height="22" fill="#FFD700"/>
<rect x="380" y="245" width="160" height="22" fill="#E3000F"/>
<text x="140" y="260" text-anchor="middle" font-family="monospace" font-size="11" fill="#F4F6F9">RESEARCH</text>
<text x="300" y="260" text-anchor="middle" font-family="monospace" font-size="11" fill="#2B2B2B">EDUCATION</text>
<text x="460" y="260" text-anchor="middle" font-family="monospace" font-size="11" fill="#F4F6F9">OPEN SOURCE</text>
</svg>